<svg width="24" height="24" viewBox="0 0 24 24" fill="none" xmlns="http://www.w3.org/2000/svg">
<g clip-path="url(#clip0_1291_6830)">
<path d="M18.4929 8.82429C18.3391 8.04916 17.8034 7.60825 17.3652 7.371C17.2742 6.80441 16.9719 6.29579 16.5056 5.93937C15.9395 5.50712 15.2121 5.36791 14.509 5.56021C13.8563 5.73733 13.3114 6.22375 13.0497 6.86075C12.9723 7.0487 12.9203 7.24154 12.8937 7.4322C12.7908 8.16995 12.5276 8.762 12.0834 9.2235L5.62348 17.0722C5.43335 17.3035 5.4664 17.6448 5.69769 17.8349C5.79844 17.9178 5.92031 17.9584 6.04165 17.9584C6.19819 17.9584 6.3531 17.8912 6.45981 17.7612L7.1889 16.8751H10.3111L10.9741 18.2005C11.0689 18.3907 11.2601 18.5001 11.4594 18.5001C11.5406 18.5001 11.6235 18.4817 11.701 18.4432C11.9686 18.3094 12.0769 17.9839 11.9431 17.7163L11.5049 16.8404C11.9675 16.789 12.4165 16.6822 12.845 16.5262L13.6824 18.2011C13.7772 18.3912 13.9684 18.5006 14.1677 18.5006C14.249 18.5006 14.3319 18.4822 14.4093 18.4437C14.6769 18.31 14.7852 17.9844 14.6514 17.7168L13.8259 16.0658C15.6308 15.009 16.8755 13.032 16.8755 10.8247C16.8755 10.8247 16.8766 9.3107 16.8782 9.29283H18.0986C18.3451 9.29283 18.5411 9.06695 18.4929 8.82537V8.82429ZM12.5416 10.3686V10.6795C12.5416 12.2357 11.3597 13.514 9.86852 13.618L12.5416 10.3686ZM16.0901 8.41262C15.8946 8.68291 15.7916 9.00575 15.7916 9.34591V10.8236C15.7916 13.5167 13.5405 15.7917 10.8755 15.7917H8.07994L9.01702 14.6532C9.23206 14.69 9.45198 14.7084 9.6719 14.7084C11.8516 14.7084 13.625 12.9009 13.625 10.6795V8.8335C13.7886 8.4565 13.9023 8.03833 13.9662 7.58062C13.9803 7.47879 14.009 7.37533 14.0518 7.27133C14.184 6.9485 14.4684 6.69337 14.7934 6.60508C15.1731 6.50162 15.5479 6.57041 15.8474 6.79954C16.1421 7.02487 16.3111 7.36612 16.3111 7.73608C16.3111 7.97929 16.2342 8.21275 16.0901 8.41262Z" fill="black"/>
</g>
<defs>
<clipPath id="clip0_1291_6830">
<rect width="13" height="13" fill="white" transform="translate(5.5 5.5)"/>
</clipPath>
</defs>
</svg>
