<svg width="24" height="25" viewBox="0 0 24 25" fill="none" xmlns="http://www.w3.org/2000/svg">
<path d="M8.4 3.53894H4.6C4.03995 3.53894 3.75992 3.53894 3.54601 3.64793C3.35785 3.74381 3.20487 3.89679 3.10899 4.08495C3 4.29886 3 4.57889 3 5.13894V8.93894C3 9.49899 3 9.77902 3.10899 9.99293C3.20487 10.1811 3.35785 10.3341 3.54601 10.4299C3.75992 10.5389 4.03995 10.5389 4.6 10.5389H8.4C8.96005 10.5389 9.24008 10.5389 9.45399 10.4299C9.64215 10.3341 9.79513 10.1811 9.89101 9.99293C10 9.77902 10 9.49899 10 8.93894V5.13894C10 4.57889 10 4.29886 9.89101 4.08495C9.79513 3.89679 9.64215 3.74381 9.45399 3.64793C9.24008 3.53894 8.96005 3.53894 8.4 3.53894Z" stroke="#B0B9C7" stroke-width="2" stroke-linecap="round" stroke-linejoin="round"/>
<path d="M19.4 3.53894H15.6C15.0399 3.53894 14.7599 3.53894 14.546 3.64793C14.3578 3.74381 14.2049 3.89679 14.109 4.08495C14 4.29886 14 4.57889 14 5.13894V8.93894C14 9.49899 14 9.77902 14.109 9.99293C14.2049 10.1811 14.3578 10.3341 14.546 10.4299C14.7599 10.5389 15.0399 10.5389 15.6 10.5389H19.4C19.9601 10.5389 20.2401 10.5389 20.454 10.4299C20.6422 10.3341 20.7951 10.1811 20.891 9.99293C21 9.77902 21 9.49899 21 8.93894V5.13894C21 4.57889 21 4.29886 20.891 4.08495C20.7951 3.89679 20.6422 3.74381 20.454 3.64793C20.2401 3.53894 19.9601 3.53894 19.4 3.53894Z" stroke="#B0B9C7" stroke-width="2" stroke-linecap="round" stroke-linejoin="round"/>
<path d="M19.4 14.5389H15.6C15.0399 14.5389 14.7599 14.5389 14.546 14.6479C14.3578 14.7438 14.2049 14.8968 14.109 15.0849C14 15.2989 14 15.5789 14 16.1389V19.9389C14 20.499 14 20.779 14.109 20.9929C14.2049 21.1811 14.3578 21.3341 14.546 21.4299C14.7599 21.5389 15.0399 21.5389 15.6 21.5389H19.4C19.9601 21.5389 20.2401 21.5389 20.454 21.4299C20.6422 21.3341 20.7951 21.1811 20.891 20.9929C21 20.779 21 20.499 21 19.9389V16.1389C21 15.5789 21 15.2989 20.891 15.0849C20.7951 14.8968 20.6422 14.7438 20.454 14.6479C20.2401 14.5389 19.9601 14.5389 19.4 14.5389Z" stroke="#B0B9C7" stroke-width="2" stroke-linecap="round" stroke-linejoin="round"/>
<path d="M8.4 14.5389H4.6C4.03995 14.5389 3.75992 14.5389 3.54601 14.6479C3.35785 14.7438 3.20487 14.8968 3.10899 15.0849C3 15.2989 3 15.5789 3 16.1389V19.9389C3 20.499 3 20.779 3.10899 20.9929C3.20487 21.1811 3.35785 21.3341 3.54601 21.4299C3.75992 21.5389 4.03995 21.5389 4.6 21.5389H8.4C8.96005 21.5389 9.24008 21.5389 9.45399 21.4299C9.64215 21.3341 9.79513 21.1811 9.89101 20.9929C10 20.779 10 20.499 10 19.9389V16.1389C10 15.5789 10 15.2989 9.89101 15.0849C9.79513 14.8968 9.64215 14.7438 9.45399 14.6479C9.24008 14.5389 8.96005 14.5389 8.4 14.5389Z" stroke="#B0B9C7" stroke-width="2" stroke-linecap="round" stroke-linejoin="round"/>
</svg>
