<svg width="24" height="24" viewBox="0 0 24 24" fill="none" xmlns="http://www.w3.org/2000/svg">
<path fill-rule="evenodd" clip-rule="evenodd" d="M6.89697 11.6612C6.89838 14.5093 9.21009 16.7736 12.0134 16.7697C14.8427 16.7657 17.1216 14.5109 17.1161 11.6612C17.1106 8.79506 14.8236 6.54597 12.0134 6.54883C9.22537 6.55157 6.89557 8.79815 6.89697 11.6612ZM11.6585 7.19244C10.2061 7.41254 9.64515 7.69137 8.65625 8.6885C7.98503 9.36531 7.41889 10.7064 7.53879 12.0311C7.89339 15.9498 12.7348 17.5932 15.3729 14.6357C17.0607 12.7438 16.7983 9.86088 14.9902 8.29917C14.293 7.69706 12.9697 6.99373 11.6585 7.19244Z" fill="#130F26"/>
<path fill-rule="evenodd" clip-rule="evenodd" d="M7.94209 5.37765L7.9403 3.59124L5.82178 3.57253C5.76371 4.12678 5.80471 6.76993 5.81351 7.64082C5.81707 7.99465 5.83548 7.94136 5.64372 8.15765L4.09766 9.99241C3.87173 10.2463 3.67443 10.4741 3.47016 10.7335C3.20603 11.0688 2.86143 11.3216 2.98326 11.5339C3.099 11.707 3.22405 11.6574 3.49926 11.6554L5.93824 11.6565C6.31127 11.6575 6.35832 11.764 6.3696 11.4082C6.41356 10.0202 6.98813 8.82918 7.853 7.84306C9.33743 6.1505 11.9301 5.51009 14.2207 6.45714C15.8822 7.14409 17.0558 8.58843 17.5118 10.3581C17.6293 10.8143 17.6066 11.1814 17.6721 11.6504C18.3493 11.6882 20.7716 11.7007 21.0076 11.6228C21.114 11.2993 20.9366 11.2393 20.7903 11.0554C20.4102 10.5775 19.9449 10.11 19.5574 9.63556L14.6476 4.02176C14.3902 3.71072 14.1148 3.37571 13.8331 3.08225L12.2015 1.20481C12.0793 1.05412 11.8737 0.893979 11.6278 1.09284L8.79915 4.42556C8.66941 4.58284 8.07043 5.32043 7.94209 5.37765ZM10.8246 4.43096C10.6474 4.53473 10.5926 4.8842 10.7836 5.01882C10.952 5.13748 13.0586 5.11575 13.208 5.02528C13.4147 4.90018 13.3721 4.58319 13.2199 4.46526C13.0501 4.33367 10.8458 4.41856 10.8246 4.43096Z" fill="#130F26"/>
<path fill-rule="evenodd" clip-rule="evenodd" d="M19.3705 12.304L17.635 12.2985C17.4671 13.1568 17.3604 13.6633 16.9954 14.3336C16.0604 16.0508 14.1996 17.3157 12.0134 17.3119C9.50932 17.3075 7.38221 15.6616 6.64246 13.3982C6.53508 13.0697 6.47758 12.5706 6.38611 12.3247C6.16392 12.2475 5.0978 12.2782 4.78708 12.3064C4.67087 13.4558 5.38086 15.0022 5.83523 15.7419C6.51961 16.8561 10.4534 21.4213 11.4558 22.4431C12.2348 23.2371 11.7822 23.3005 13.1276 21.8445C13.4909 21.4513 13.8201 21.0549 14.1906 20.641L15.7568 18.8698C16.3812 18.1702 17.8697 16.472 18.3112 15.7747C18.7663 15.0557 19.4615 13.3879 19.3705 12.304Z" fill="#130F26"/>
<path fill-rule="evenodd" clip-rule="evenodd" d="M12.7583 15.835C13.1415 15.8487 13.9176 15.4884 14.2145 15.3174C14.8871 14.93 15.3282 14.4129 15.7088 13.7734C16.0976 13.1199 15.9513 13.1503 15.3298 12.0669C15.1317 11.7215 15.2188 11.8298 15.0934 11.7739C14.9709 11.8906 14.8793 12.0899 14.786 12.2527C14.6901 12.4202 14.5941 12.5806 14.4891 12.7693C14.2165 13.2594 12.7756 15.6733 12.7583 15.835Z" fill="#130F26"/>
<path fill-rule="evenodd" clip-rule="evenodd" d="M8.68104 14.2611L10.286 14.2652C10.2723 14.124 8.65796 11.3875 8.32506 10.8152C8.23062 10.6529 8.16548 10.4149 7.99177 10.3271C7.7086 10.7871 7.71617 11.9844 7.85437 12.5704C8.02057 13.2753 8.31682 13.8308 8.68104 14.2611Z" fill="#130F26"/>
<path fill-rule="evenodd" clip-rule="evenodd" d="M16.0778 12.9087C16.2459 12.6181 16.3015 11.8928 16.2893 11.489C16.2753 11.0273 16.1588 10.4899 16.0074 10.1095C15.9059 9.85492 15.5602 9.19385 15.4107 9.07667C15.2584 8.95721 14.1027 8.98536 13.8149 9.01264C13.8394 9.1997 15.5198 12.0272 15.8978 12.697C15.9675 12.8206 15.9639 12.8474 16.0778 12.9087Z" fill="#130F26"/>
<path fill-rule="evenodd" clip-rule="evenodd" d="M10.6543 8.82336C11.8087 8.82381 14.0306 8.76828 15.1371 8.83156C15.1264 8.67748 15.0658 8.65449 14.9764 8.56945C14.4006 8.02131 13.6677 7.606 12.8369 7.458C12.4285 7.38529 11.5545 7.22956 11.2916 7.60388C11.1641 7.78553 10.6498 8.66798 10.6543 8.82336Z" fill="#130F26"/>
<path fill-rule="evenodd" clip-rule="evenodd" d="M8.83911 11.3998C8.99495 11.3282 9.34468 10.6231 9.44159 10.4567C9.64941 10.0997 11.102 7.65742 11.1078 7.47754C10.7056 7.52938 10.0693 7.84529 9.753 8.03135C9.05115 8.44417 7.94484 9.74354 8.13366 10.1472L8.83911 11.3998Z" fill="#130F26"/>
<path fill-rule="evenodd" clip-rule="evenodd" d="M13.2536 14.4869L8.88525 14.4844C9.04378 14.9446 10.3779 15.6807 11.1385 15.8249C11.421 15.8786 11.6744 15.9044 11.9711 15.9061C12.3342 15.9084 12.4555 15.9056 12.6195 15.6462C12.7384 15.4581 13.2224 14.6845 13.2536 14.4869Z" fill="#130F26"/>
</svg>
